<svg width="140" height="140" viewBox="0 0 140 140" fill="none" xmlns="http://www.w3.org/2000/svg">
<path d="M128.438 68.2292H127.446C123.373 50.025 107.117 36.3542 87.7083 36.3542H75.3125V31.8208C81.475 29.625 85.9375 23.7812 85.9375 16.875C85.9375 8.09166 78.7833 0.937498 70 0.937498C61.2167 0.937498 54.0625 8.09166 54.0625 16.875C54.0625 23.7812 58.525 29.625 64.6875 31.8208V36.3542H52.2917C32.8833 36.3542 16.6271 50.025 12.5542 68.2292H11.5625C5.71875 68.2292 0.9375 73.0104 0.9375 78.8542V89.4792C0.9375 95.3229 5.71875 100.104 11.5625 100.104H13.5104C17.6896 113.138 28.2437 123.267 41.4896 126.95C40.4979 129.04 39.8958 131.306 39.8958 133.75C39.8958 136.69 42.2688 139.063 45.2083 139.063H94.7917C97.7313 139.063 100.104 136.69 100.104 133.75C100.104 131.306 99.5021 129.004 98.5104 126.95C111.756 123.302 122.31 113.138 126.49 100.104H128.438C134.281 100.104 139.063 95.3229 139.063 89.4792V78.8542C139.063 73.0104 134.281 68.2292 128.438 68.2292ZM70 11.5625C72.9396 11.5625 75.3125 13.9354 75.3125 16.875C75.3125 19.8146 72.9396 22.1875 70 22.1875C67.0604 22.1875 64.6875 19.8146 64.6875 16.875C64.6875 13.9354 67.0604 11.5625 70 11.5625ZM87.7083 117.813H52.2917C35.6813 117.813 22.1875 104.319 22.1875 87.7083V77.0833C22.1875 60.4729 35.6813 46.9792 52.2917 46.9792H87.7083C104.319 46.9792 117.813 60.4729 117.813 77.0833V87.7083C117.813 104.319 104.319 117.813 87.7083 117.813Z" fill="black"/>
<path d="M50.5208 61.1458C44.6771 61.1458 39.8958 65.9271 39.8958 71.7708V82.3958C39.8958 88.2396 44.6771 93.0208 50.5208 93.0208C56.3646 93.0208 61.1458 88.2396 61.1458 82.3958V71.7708C61.1458 65.9271 56.3646 61.1458 50.5208 61.1458Z" fill="black"/>
<path d="M89.4792 61.1458C83.6354 61.1458 78.8542 65.9271 78.8542 71.7708V82.3958C78.8542 88.2396 83.6354 93.0208 89.4792 93.0208C95.3229 93.0208 100.104 88.2396 100.104 82.3958V71.7708C100.104 65.9271 95.3229 61.1458 89.4792 61.1458Z" fill="black"/>
<path d="M32.9187 11.2792L43.5438 14.8208C44.1104 14.9979 44.6771 15.1042 45.2083 15.1042C47.4396 15.1042 49.4938 13.6875 50.2375 11.4562C51.1583 8.65833 49.6708 5.64792 46.8729 4.72708L36.2479 1.18542C33.4854 0.264582 30.475 1.75208 29.5187 4.55C28.5625 7.34792 30.0854 10.3583 32.8833 11.2792H32.9187Z" fill="black"/>
<path d="M34.5833 32.8125C35.15 32.8125 35.7167 32.7417 36.2479 32.5292L46.8729 28.9875C49.6708 28.0667 51.1583 25.0562 50.2375 22.2583C49.3167 19.4604 46.3063 17.9729 43.5083 18.8937L32.8833 22.4354C30.0854 23.3562 28.5979 26.3667 29.5187 29.1646C30.2625 31.3958 32.3167 32.8125 34.5479 32.8125H34.5833Z" fill="black"/>
<path d="M94.7917 15.1042C95.3583 15.1042 95.925 15.0333 96.4562 14.8208L107.081 11.2792C109.879 10.3583 111.367 7.34792 110.446 4.55C109.525 1.75208 106.515 0.264582 103.717 1.18542L93.0917 4.72708C90.2938 5.64792 88.8063 8.65833 89.7271 11.4562C90.4708 13.6875 92.525 15.1042 94.7563 15.1042H94.7917Z" fill="black"/>
<path d="M93.1271 28.9875L103.752 32.5292C104.319 32.7063 104.885 32.8125 105.417 32.8125C107.648 32.8125 109.702 31.3958 110.446 29.1646C111.367 26.3667 109.879 23.3562 107.081 22.4354L96.4562 18.8937C93.6937 17.9729 90.6479 19.4604 89.7271 22.2583C88.8063 25.0562 90.2938 28.0667 93.0917 28.9875H93.1271Z" fill="black"/>
</svg>
